<mxfile host="Electron" agent="Mozilla/5.0 (Windows NT 10.0; Win64; x64) AppleWebKit/537.36 (KHTML, like Gecko) draw.io/28.1.2 Chrome/138.0.7204.243 Electron/37.4.0 Safari/537.36" version="28.1.2">
  <diagram name="Seite-1" id="abSk2g-fQRa5oomzOUQR">
    <mxGraphModel dx="1426" dy="841" grid="1" gridSize="10" guides="1" tooltips="1" connect="1" arrows="1" fold="1" page="1" pageScale="1" pageWidth="827" pageHeight="1169" math="0" shadow="0">
      <root>
        <mxCell id="0" />
        <mxCell id="1" parent="0" />
        <mxCell id="HrAra-s8xm2rdkdKfDuV-1" value="&lt;font style=&quot;font-size: 24px;&quot;&gt;Hello Master&lt;/font&gt;" style="text;html=1;align=center;verticalAlign=middle;whiteSpace=wrap;rounded=0;labelBackgroundColor=none;fontColor=#FFFFFF;" vertex="1" parent="1">
          <mxGeometry x="30" y="20" width="160" height="80" as="geometry" />
        </mxCell>
        <mxCell id="HrAra-s8xm2rdkdKfDuV-6" value="" style="edgeStyle=orthogonalEdgeStyle;rounded=0;orthogonalLoop=1;jettySize=auto;html=1;labelBackgroundColor=none;strokeColor=#23445D;fontColor=default;" edge="1" parent="1" source="HrAra-s8xm2rdkdKfDuV-2" target="HrAra-s8xm2rdkdKfDuV-5">
          <mxGeometry relative="1" as="geometry" />
        </mxCell>
        <mxCell id="HrAra-s8xm2rdkdKfDuV-2" value="start" style="ellipse;whiteSpace=wrap;html=1;aspect=fixed;labelBackgroundColor=none;fillColor=#182E3E;strokeColor=#FFFFFF;fontColor=#FFFFFF;" vertex="1" parent="1">
          <mxGeometry x="190" y="130" width="80" height="80" as="geometry" />
        </mxCell>
        <mxCell id="HrAra-s8xm2rdkdKfDuV-8" value="" style="edgeStyle=orthogonalEdgeStyle;rounded=0;orthogonalLoop=1;jettySize=auto;html=1;labelBackgroundColor=none;strokeColor=#23445D;fontColor=default;" edge="1" parent="1" source="HrAra-s8xm2rdkdKfDuV-5" target="HrAra-s8xm2rdkdKfDuV-7">
          <mxGeometry relative="1" as="geometry" />
        </mxCell>
        <mxCell id="HrAra-s8xm2rdkdKfDuV-5" value="&lt;font style=&quot;color: rgb(255, 255, 255);&quot;&gt;print: What is your name?&lt;/font&gt;" style="rounded=1;whiteSpace=wrap;html=1;labelBackgroundColor=none;fillColor=#182E3E;strokeColor=#FFFFFF;fontColor=#FFFFFF;" vertex="1" parent="1">
          <mxGeometry x="170" y="250" width="120" height="60" as="geometry" />
        </mxCell>
        <mxCell id="HrAra-s8xm2rdkdKfDuV-10" value="" style="edgeStyle=orthogonalEdgeStyle;rounded=0;orthogonalLoop=1;jettySize=auto;html=1;labelBackgroundColor=none;strokeColor=#23445D;fontColor=default;" edge="1" parent="1" source="HrAra-s8xm2rdkdKfDuV-7" target="HrAra-s8xm2rdkdKfDuV-9">
          <mxGeometry relative="1" as="geometry" />
        </mxCell>
        <mxCell id="HrAra-s8xm2rdkdKfDuV-7" value="input: name" style="shape=parallelogram;perimeter=parallelogramPerimeter;whiteSpace=wrap;html=1;fixedSize=1;rounded=1;labelBackgroundColor=none;fillColor=#182E3E;strokeColor=#FFFFFF;fontColor=#FFFFFF;" vertex="1" parent="1">
          <mxGeometry x="170" y="350" width="120" height="60" as="geometry" />
        </mxCell>
        <mxCell id="HrAra-s8xm2rdkdKfDuV-12" value="" style="edgeStyle=orthogonalEdgeStyle;rounded=0;orthogonalLoop=1;jettySize=auto;html=1;labelBackgroundColor=none;strokeColor=#23445D;fontColor=default;" edge="1" parent="1" source="HrAra-s8xm2rdkdKfDuV-9" target="HrAra-s8xm2rdkdKfDuV-11">
          <mxGeometry relative="1" as="geometry" />
        </mxCell>
        <mxCell id="HrAra-s8xm2rdkdKfDuV-9" value="print: Hello Master!&lt;br&gt;name" style="whiteSpace=wrap;html=1;rounded=1;labelBackgroundColor=none;fillColor=#182E3E;strokeColor=#FFFFFF;fontColor=#FFFFFF;" vertex="1" parent="1">
          <mxGeometry x="170" y="450" width="120" height="60" as="geometry" />
        </mxCell>
        <mxCell id="HrAra-s8xm2rdkdKfDuV-11" value="end" style="ellipse;whiteSpace=wrap;html=1;rounded=1;labelBackgroundColor=none;fillColor=#182E3E;strokeColor=#FFFFFF;fontColor=#FFFFFF;" vertex="1" parent="1">
          <mxGeometry x="190" y="545" width="80" height="80" as="geometry" />
        </mxCell>
        <mxCell id="HrAra-s8xm2rdkdKfDuV-13" value="" style="shape=note;whiteSpace=wrap;html=1;backgroundOutline=1;darkOpacity=0.05;strokeColor=#FFFFFF;fontColor=#FFFFFF;fillColor=#182E3E;" vertex="1" parent="1">
          <mxGeometry x="470" y="180" width="250" height="190" as="geometry" />
        </mxCell>
        <mxCell id="HrAra-s8xm2rdkdKfDuV-14" value="&lt;h1 style=&quot;margin-top: 0px;&quot;&gt;&lt;font style=&quot;color: rgb(255, 255, 255);&quot;&gt;PS Code&lt;/font&gt;&lt;/h1&gt;&lt;p&gt;START&lt;br&gt;&lt;span style=&quot;white-space: pre;&quot;&gt;&#x9;&lt;/span&gt;SET name: null&lt;br&gt;&lt;span style=&quot;white-space: pre;&quot;&gt;&#x9;&lt;/span&gt;PRINT: &quot;what is your name?&quot;&lt;br&gt;&lt;span style=&quot;white-space: pre;&quot;&gt;&#x9;&lt;/span&gt;GET name&lt;br&gt;&lt;span style=&quot;white-space: pre;&quot;&gt;&#x9;&lt;/span&gt;PRINT; Hello Master + name&lt;br&gt;END&lt;/p&gt;" style="text;html=1;whiteSpace=wrap;overflow=hidden;rounded=0;fontColor=#FFFFFF;" vertex="1" parent="1">
          <mxGeometry x="490" y="190" width="290" height="160" as="geometry" />
        </mxCell>
      </root>
    </mxGraphModel>
  </diagram>
</mxfile>
